<svg width="22" height="23" fill="none" xmlns="http://www.w3.org/2000/svg"><path fill-rule="evenodd" clip-rule="evenodd" d="M11 1.5c5.523 0 10 4.477 10 10s-4.477 10-10 10-10-4.477-10-10 4.477-10 10-10z" fill="#E8E8EB"/><path opacity=".5" fill-rule="evenodd" clip-rule="evenodd" d="M13.232 9.335a2.882 2.882 0 00-2.096-.912c-.82 0-1.562.35-2.096.912H5.395v-1.55c0-.796.38-1.499.96-1.926V8.4h.466V5.595c.106-.044.216-.08.329-.108V8.4h.466V5.426a1.382 1.382 0 00.053-.001h.269V8.4h.466V5.425h6.214c1.256 0 2.274 1.056 2.274 2.36v1.55h-3.66zm1.027-2.923a.372.372 0 00-.365.378v1.304c0 .21.163.379.365.379h1.229c.201 0 .365-.17.365-.379V6.79a.372.372 0 00-.365-.378h-1.23zM12.07 9.335c.203.096.39.223.557.374.474.432.774 1.064.774 1.768 0 1.297-1.016 2.353-2.266 2.353s-2.267-1.056-2.267-2.353c0-.704.3-1.336.774-1.768.167-.151.354-.278.558-.374a2.186 2.186 0 011.87 0zm-2.603 2.142c0 .96.75 1.739 1.675 1.739s1.675-.779 1.675-1.739c0-.96-.75-1.738-1.675-1.738s-1.675.778-1.675 1.738zm5.15 5.944h-6.95c-1.255 0-2.273-1.057-2.273-2.36V9.708h3.343a3.116 3.116 0 00-.544 1.768c0 1.687 1.317 3.054 2.942 3.054 1.625 0 2.942-1.367 2.942-3.054 0-.66-.202-1.27-.544-1.768h3.358v5.351c0 1.304-1.018 2.36-2.274 2.36z" fill="#000"/></svg>