<svg width="22" height="23" fill="none" xmlns="http://www.w3.org/2000/svg"><path fill-rule="evenodd" clip-rule="evenodd" d="M11 1.5c5.523 0 10 4.477 10 10s-4.477 10-10 10-10-4.477-10-10 4.477-10 10-10z" fill="#E8E8EB"/><path opacity=".5" fill-rule="evenodd" clip-rule="evenodd" d="M6.8 8.612c.741 0 1.342-.606 1.342-1.352 0-.747-.601-1.353-1.342-1.353-.742 0-1.343.606-1.343 1.353 0 .746.601 1.352 1.343 1.352zm-1.125 8.29h2.27v-7.33h-2.27v7.33zm7.282-5.492c-.908 0-1.383.614-1.383 1.645v3.847H9.397v-7.33h2.177v.987s.655-1.21 2.21-1.21 2.668.949 2.668 2.912v4.641h-2.259v-3.847c0-1.056-.4-1.645-1.236-1.645z" fill="#000"/></svg>