<svg width="10" height="14" fill="none" xmlns="http://www.w3.org/2000/svg"><path opacity=".4" fill-rule="evenodd" clip-rule="evenodd" d="M7.409 13.5H3.091C1.66 13.5.5 12.409.5 11.062V9.438c0-1.068.734-1.965 1.749-2.295a4.158 4.158 0 01-.885-2.58C1.364 2.319 3.104.5 5.25.5s3.886 1.819 3.886 4.063c0 .98-.332 1.878-.885 2.58C9.266 7.473 10 8.37 10 9.438v1.624C10 12.41 8.84 13.5 7.409 13.5zm.864-8.937c0-1.795-1.354-3.25-3.023-3.25-1.67 0-3.023 1.455-3.023 3.25 0 1.794 1.354 3.25 3.023 3.25 1.67 0 3.023-1.456 3.023-3.25zm.863 5.078c0-.864-.696-1.583-1.63-1.775a3.751 3.751 0 01-2.256.759 3.75 3.75 0 01-2.256-.759c-.934.192-1.63.911-1.63 1.775v1.218c0 1.01.949 1.829 2.12 1.829h3.533c1.17 0 2.12-.819 2.12-1.829V9.641z" fill="#000"/></svg>